<mxfile host="app.diagrams.net" agent="Mozilla/5.0 (Windows NT 10.0; Win64; x64) AppleWebKit/537.36 (KHTML, like Gecko) Chrome/131.0.0.0 Safari/537.36" scale="1" border="0" version="24.9.2">
  <diagram name="Page-1" id="Page-1">
    <mxGraphModel grid="1" page="1" gridSize="10" guides="1" tooltips="1" connect="1" arrows="1" fold="1" pageScale="1" pageWidth="827" pageHeight="583" math="0" shadow="0">
      <root>
        <mxCell id="0" />
        <mxCell id="1" parent="0" />
        <mxCell id="P3BRGBd7a3wcOy2r283L-174" value="" style="rounded=1;whiteSpace=wrap;html=1;" vertex="1" parent="1">
          <mxGeometry x="-280" y="120" width="1790" height="1090" as="geometry" />
        </mxCell>
        <mxCell id="P3BRGBd7a3wcOy2r283L-175" value="Cont" style="rounded=1;whiteSpace=wrap;html=1;" vertex="1" parent="1">
          <mxGeometry x="-250" y="420" width="120" height="60" as="geometry" />
        </mxCell>
        <mxCell id="P3BRGBd7a3wcOy2r283L-176" value="" style="rounded=1;whiteSpace=wrap;html=1;" vertex="1" parent="1">
          <mxGeometry x="-210" y="170" width="350" height="130" as="geometry" />
        </mxCell>
        <mxCell id="P3BRGBd7a3wcOy2r283L-177" value="Administrator" style="text;html=1;align=center;verticalAlign=middle;resizable=0;points=[];autosize=1;strokeColor=none;fillColor=none;" vertex="1" parent="1">
          <mxGeometry x="-140" y="360" width="90" height="30" as="geometry" />
        </mxCell>
        <mxCell id="P3BRGBd7a3wcOy2r283L-178" value="" style="endArrow=classic;html=1;rounded=0;exitX=1;exitY=0.25;exitDx=0;exitDy=0;entryX=0.5;entryY=1;entryDx=0;entryDy=0;" edge="1" parent="1" source="P3BRGBd7a3wcOy2r283L-175" target="P3BRGBd7a3wcOy2r283L-176">
          <mxGeometry width="50" height="50" relative="1" as="geometry">
            <mxPoint x="420" y="640" as="sourcePoint" />
            <mxPoint x="470" y="590" as="targetPoint" />
            <Array as="points">
              <mxPoint x="-35" y="435" />
            </Array>
          </mxGeometry>
        </mxCell>
        <mxCell id="P3BRGBd7a3wcOy2r283L-179" value="" style="rounded=1;whiteSpace=wrap;html=1;" vertex="1" parent="1">
          <mxGeometry x="-120" y="690" width="490" height="470" as="geometry" />
        </mxCell>
        <mxCell id="P3BRGBd7a3wcOy2r283L-180" value="Logare" style="text;html=1;align=center;verticalAlign=middle;resizable=0;points=[];autosize=1;strokeColor=none;fillColor=none;" vertex="1" parent="1">
          <mxGeometry x="-40" y="710" width="60" height="30" as="geometry" />
        </mxCell>
        <mxCell id="P3BRGBd7a3wcOy2r283L-181" value="" style="endArrow=classic;html=1;rounded=0;exitX=0.75;exitY=1;exitDx=0;exitDy=0;entryX=0.25;entryY=0;entryDx=0;entryDy=0;" edge="1" parent="1" source="P3BRGBd7a3wcOy2r283L-175" target="P3BRGBd7a3wcOy2r283L-179">
          <mxGeometry width="50" height="50" relative="1" as="geometry">
            <mxPoint x="420" y="960" as="sourcePoint" />
            <mxPoint x="470" y="910" as="targetPoint" />
            <Array as="points" />
          </mxGeometry>
        </mxCell>
        <mxCell id="P3BRGBd7a3wcOy2r283L-182" value="Interfata" style="text;html=1;align=center;verticalAlign=middle;resizable=0;points=[];autosize=1;strokeColor=none;fillColor=none;" vertex="1" parent="1">
          <mxGeometry x="110" y="650" width="70" height="30" as="geometry" />
        </mxCell>
        <mxCell id="P3BRGBd7a3wcOy2r283L-183" value="" style="rounded=1;whiteSpace=wrap;html=1;" vertex="1" parent="1">
          <mxGeometry x="-80" y="860" width="440" height="130" as="geometry" />
        </mxCell>
        <mxCell id="P3BRGBd7a3wcOy2r283L-184" value="Carti" style="text;html=1;align=center;verticalAlign=middle;resizable=0;points=[];autosize=1;strokeColor=none;fillColor=none;" vertex="1" parent="1">
          <mxGeometry x="130" y="820" width="50" height="30" as="geometry" />
        </mxCell>
        <mxCell id="P3BRGBd7a3wcOy2r283L-185" value="" style="rounded=1;whiteSpace=wrap;html=1;" vertex="1" parent="1">
          <mxGeometry x="-85" y="1040" width="435" height="90" as="geometry" />
        </mxCell>
        <mxCell id="P3BRGBd7a3wcOy2r283L-186" value="Cititori" style="text;html=1;align=center;verticalAlign=middle;resizable=0;points=[];autosize=1;strokeColor=none;fillColor=none;" vertex="1" parent="1">
          <mxGeometry x="110" y="1010" width="60" height="30" as="geometry" />
        </mxCell>
        <mxCell id="P3BRGBd7a3wcOy2r283L-187" value="" style="rounded=1;whiteSpace=wrap;html=1;" vertex="1" parent="1">
          <mxGeometry x="430" y="150" width="700" height="260" as="geometry" />
        </mxCell>
        <mxCell id="P3BRGBd7a3wcOy2r283L-188" value="" style="rounded=1;whiteSpace=wrap;html=1;" vertex="1" parent="1">
          <mxGeometry x="470" y="200" width="280" height="110" as="geometry" />
        </mxCell>
        <mxCell id="P3BRGBd7a3wcOy2r283L-189" value="Cont Utilizator" style="text;html=1;align=center;verticalAlign=middle;resizable=0;points=[];autosize=1;strokeColor=none;fillColor=none;" vertex="1" parent="1">
          <mxGeometry x="580" y="170" width="100" height="30" as="geometry" />
        </mxCell>
        <mxCell id="P3BRGBd7a3wcOy2r283L-190" value="" style="rounded=1;whiteSpace=wrap;html=1;" vertex="1" parent="1">
          <mxGeometry x="810" y="200" width="280" height="110" as="geometry" />
        </mxCell>
        <mxCell id="P3BRGBd7a3wcOy2r283L-191" value="Carti" style="text;html=1;align=center;verticalAlign=middle;resizable=0;points=[];autosize=1;strokeColor=none;fillColor=none;" vertex="1" parent="1">
          <mxGeometry x="925" y="170" width="50" height="30" as="geometry" />
        </mxCell>
        <mxCell id="P3BRGBd7a3wcOy2r283L-192" value="" style="endArrow=classic;html=1;rounded=0;exitX=1;exitY=0.5;exitDx=0;exitDy=0;entryX=0;entryY=0.25;entryDx=0;entryDy=0;" edge="1" parent="1" source="P3BRGBd7a3wcOy2r283L-176" target="P3BRGBd7a3wcOy2r283L-187">
          <mxGeometry width="50" height="50" relative="1" as="geometry">
            <mxPoint x="420" y="660" as="sourcePoint" />
            <mxPoint x="470" y="610" as="targetPoint" />
          </mxGeometry>
        </mxCell>
        <mxCell id="P3BRGBd7a3wcOy2r283L-193" value="Contine" style="text;html=1;align=center;verticalAlign=middle;resizable=0;points=[];autosize=1;strokeColor=none;fillColor=none;" vertex="1" parent="1">
          <mxGeometry x="250" y="190" width="60" height="30" as="geometry" />
        </mxCell>
        <mxCell id="P3BRGBd7a3wcOy2r283L-194" value="" style="rounded=1;whiteSpace=wrap;html=1;" vertex="1" parent="1">
          <mxGeometry x="60" y="370" width="270" height="80" as="geometry" />
        </mxCell>
        <mxCell id="P3BRGBd7a3wcOy2r283L-195" value="Bibliotecar" style="text;html=1;align=center;verticalAlign=middle;resizable=0;points=[];autosize=1;strokeColor=none;fillColor=none;" vertex="1" parent="1">
          <mxGeometry x="-30" y="410" width="80" height="30" as="geometry" />
        </mxCell>
        <mxCell id="P3BRGBd7a3wcOy2r283L-196" value="" style="endArrow=classic;html=1;rounded=0;exitX=1;exitY=0.5;exitDx=0;exitDy=0;entryX=0;entryY=0.5;entryDx=0;entryDy=0;" edge="1" parent="1" source="P3BRGBd7a3wcOy2r283L-175" target="P3BRGBd7a3wcOy2r283L-194">
          <mxGeometry width="50" height="50" relative="1" as="geometry">
            <mxPoint x="420" y="660" as="sourcePoint" />
            <mxPoint x="470" y="610" as="targetPoint" />
            <Array as="points">
              <mxPoint x="30" y="450" />
            </Array>
          </mxGeometry>
        </mxCell>
        <mxCell id="P3BRGBd7a3wcOy2r283L-197" value="" style="endArrow=classic;html=1;rounded=0;exitX=0.25;exitY=1;exitDx=0;exitDy=0;entryX=1;entryY=0.75;entryDx=0;entryDy=0;" edge="1" parent="1" source="P3BRGBd7a3wcOy2r283L-187" target="P3BRGBd7a3wcOy2r283L-175">
          <mxGeometry width="50" height="50" relative="1" as="geometry">
            <mxPoint x="420" y="660" as="sourcePoint" />
            <mxPoint x="470" y="610" as="targetPoint" />
            <Array as="points">
              <mxPoint x="250" y="570" />
            </Array>
          </mxGeometry>
        </mxCell>
        <mxCell id="P3BRGBd7a3wcOy2r283L-198" value="Cititor" style="text;html=1;align=center;verticalAlign=middle;resizable=0;points=[];autosize=1;strokeColor=none;fillColor=none;" vertex="1" parent="1">
          <mxGeometry x="230" y="530" width="50" height="30" as="geometry" />
        </mxCell>
        <mxCell id="P3BRGBd7a3wcOy2r283L-199" value="Contine" style="text;html=1;align=center;verticalAlign=middle;resizable=0;points=[];autosize=1;strokeColor=none;fillColor=none;" vertex="1" parent="1">
          <mxGeometry x="340" y="340" width="60" height="30" as="geometry" />
        </mxCell>
        <mxCell id="P3BRGBd7a3wcOy2r283L-200" value="" style="endArrow=classic;html=1;rounded=0;exitX=1;exitY=0.5;exitDx=0;exitDy=0;entryX=0;entryY=0.75;entryDx=0;entryDy=0;" edge="1" parent="1" source="P3BRGBd7a3wcOy2r283L-194" target="P3BRGBd7a3wcOy2r283L-187">
          <mxGeometry width="50" height="50" relative="1" as="geometry">
            <mxPoint x="420" y="660" as="sourcePoint" />
            <mxPoint x="470" y="610" as="targetPoint" />
          </mxGeometry>
        </mxCell>
        <mxCell id="P3BRGBd7a3wcOy2r283L-201" value="Baza de date si securitate" style="text;html=1;align=center;verticalAlign=middle;resizable=0;points=[];autosize=1;strokeColor=none;fillColor=none;fontSize=30;" vertex="1" parent="1">
          <mxGeometry x="-120" y="60" width="370" height="50" as="geometry" />
        </mxCell>
      </root>
    </mxGraphModel>
  </diagram>
</mxfile>
